HIERARCHY
ROOT Hips
{
  OFFSET 3.13124 94.3669 -3.18751
  CHANNELS  6 Xposition Yposition Zposition Zrotation Xrotation Yrotation
  JOINT LeftUpLeg
  {
    OFFSET 8.64259 1.95398 -2.38835
    CHANNELS 3 Zrotation Xrotation Yrotation
    JOINT LeftLeg
    {
      OFFSET 43.7702 0 0
      CHANNELS 3 Zrotation Xrotation Yrotation
      JOINT LeftFoot
      {
        OFFSET 40.6238 0 0
        CHANNELS 3 Zrotation Xrotation Yrotation
        JOINT LeftToeBase
        {
          OFFSET 12.7242 0 0
          CHANNELS 3 Zrotation Xrotation Yrotation
          End Site
          {
            OFFSET 0 0 0
          }
        }
      }
    }
  }
  JOINT RightUpLeg
  {
    OFFSET -8.2249 1.95398 -2.59336
    CHANNELS 3 Zrotation Xrotation Yrotation
    JOINT RightLeg
    {
      OFFSET 43.5653 0 0
      CHANNELS 3 Zrotation Xrotation Yrotation
      JOINT RightFoot
      {
        OFFSET 40.6238 0 0
        CHANNELS 3 Zrotation Xrotation Yrotation
        JOINT RightToeBase
        {
          OFFSET 12.7242 0 0
          CHANNELS 3 Zrotation Xrotation Yrotation
          End Site
          {
            OFFSET 0 0 0
          }
        }
      }
    }
  }
  JOINT Spine
  {
    OFFSET 0.165834 0.87714 6.61349
    CHANNELS 3 Zrotation Xrotation Yrotation
    JOINT Spine1
    {
      OFFSET 7.38962 1.71661e-005 0
      CHANNELS 3 Zrotation Xrotation Yrotation
      JOINT Spine2
      {
        OFFSET 11.9445 1.14441e-005 0
        CHANNELS 3 Zrotation Xrotation Yrotation
        JOINT Spine3
        {
          OFFSET 14.7254 4.19617e-005 0
          CHANNELS 3 Zrotation Xrotation Yrotation
          JOINT Spine4
          {
            OFFSET 10.9679 0 0
            CHANNELS 3 Zrotation Xrotation Yrotation
            JOINT RightShoulder
            {
              OFFSET 2.46616 -1.6653 3.69651
              CHANNELS 3 Zrotation Xrotation Yrotation
              JOINT RightArm
              {
                OFFSET 13.0012 0 0
                CHANNELS 3 Zrotation Xrotation Yrotation
                JOINT RightForeArm
                {
                  OFFSET 28.7848 1.52588e-005 0
                  CHANNELS 3 Zrotation Xrotation Yrotation
                  JOINT RightHand
                  {
                    OFFSET 26.5688 1.52588e-005 0
                    CHANNELS 3 Zrotation Xrotation Yrotation
                    End Site
                    {
                      OFFSET 0 0 0
                    }
                  }
                }
              }
            }
            JOINT LeftShoulder
            {
              OFFSET 2.38034 -1.29275 -3.75231
              CHANNELS 3 Zrotation Xrotation Yrotation
              JOINT LeftArm
              {
                OFFSET 16.3182 6.10352e-005 0
                CHANNELS 3 Zrotation Xrotation Yrotation
                JOINT LeftForeArm
                {
                  OFFSET 27.0901 0 0
                  CHANNELS 3 Zrotation Xrotation Yrotation
                  JOINT LeftHand
                  {
                    OFFSET 24.5451 1.52588e-005 0
                    CHANNELS 3 Zrotation Xrotation Yrotation
                    End Site
                    {
                      OFFSET 0 0 0
                    }
                  }
                }
              }
            }
            JOINT Neck
            {
              OFFSET 5.0226 -0.0266342 0
              CHANNELS 3 Zrotation Xrotation Yrotation
              JOINT Head
              {
                OFFSET 6.69363 2.86102e-005 0
                CHANNELS 3 Zrotation Xrotation Yrotation
                End Site
                {
                  OFFSET 0 0 0
                }
              }
            }
          }
        }
      }
    }
  }
}
MOTION
Frames:	15
Frame Time:	0.0333333
-9.95938 95.3492 3.27705 -88.6645 69.5177 -92.8463 -178.016 4.75936 93.667 -14.1375 2.36692 0.167565 66.4616 -1.25779 -0.717003 28.7808 6.86584e-006 3.02911e-006 157.337 8.87939 85.6133 -12.8948 5.39284 -8.13079 69.0006 -9.89303 26.2447 28.7808 1.96868e-005 3.08331e-005 -0.0294964 6.34085 -89.6591 14.1934 1.72795e-005 1.44796e-006 2.5225 -8.79794e-006 -1.07668e-005 -20.0127 1.32942e-006 1.2231e-005 1.0709e-005 2.13389e-006 -2.85915e-006 102.168 -18.2401 -82.1275 -14.1751 -3.891 -4.29743 -7.16327 0.238992 -23.2631 0.901518 3.6558 1.72026 -77.7585 -21.1201 97.0907 23.4877 7.65425 -11.5594 0.352172 -5.45847 -9.74921 1.0641 -2.61981 1.36613 1.75621 -7.65398e-006 8.83806e-007 -7.41342 -0.000176061 -0.000214248 
-9.91336 95.3578 3.28978 -88.7202 69.4503 -92.8081 -178 4.67792 93.6762 -13.9394 2.52663 0.167585 66.326 -1.227 -0.707624 28.7808 6.86584e-006 3.02911e-006 157.289 8.85338 85.6048 -12.8528 5.54171 -8.10045 69.0551 -9.94367 26.3584 28.7808 1.96868e-005 3.08331e-005 -0.0296943 6.34067 -89.6556 14.1934 1.72795e-005 1.44796e-006 2.5225 -8.79794e-006 -1.07668e-005 -20.0127 1.32942e-006 1.2231e-005 1.0709e-005 2.13389e-006 -2.85915e-006 102.143 -18.2641 -82.1373 -14.1197 -3.57837 -4.24624 -7.20339 0.0537551 -23.2792 0.808716 3.70979 1.75909 -77.7764 -21.0961 97.1006 23.2944 7.48216 -11.5482 0.492155 -5.33847 -9.73044 1.03959 -2.52708 1.40975 2.09811 -0.00950548 -0.0181764 -7.75248 -0.0225993 -0.0185489 
-9.87375 95.3656 3.28941 -88.7642 69.4102 -92.7777 -177.982 4.58961 93.6903 -13.7442 2.57387 0.167631 66.2014 -1.23246 -0.717431 28.7808 6.86584e-006 3.02911e-006 157.322 8.80428 85.628 -12.8199 5.47018 -8.12306 69.06 -9.90028 26.1625 28.7808 1.96868e-005 3.08331e-005 -0.0298906 6.34047 -89.6519 14.1934 1.72795e-005 1.44796e-006 2.5225 -8.79794e-006 -1.07668e-005 -20.0127 1.32942e-006 1.2231e-005 1.0709e-005 2.13389e-006 -2.85915e-006 102.141 -18.2414 -82.1294 -14.0524 -3.53036 -4.27211 -7.1484 0.238274 -23.2323 0.55053 3.6287 2.06241 -77.7851 -21.1186 97.0927 23.1935 7.32723 -11.4876 0.529186 -5.19671 -9.71458 0.95897 -2.47007 1.38236 2.39645 -0.0451426 -0.115379 -8.0235 -0.0289519 0.0472152 
-9.83616 95.3699 3.3013 -88.6856 69.3158 -92.8701 -177.974 4.57222 93.6887 -13.5745 2.66693 0.172369 66.0758 -1.20001 -0.706767 28.7808 6.86584e-006 3.02911e-006 157.263 8.84171 85.5976 -12.8386 5.4916 -8.03989 69.0728 -9.83646 26.2302 28.7808 1.96868e-005 3.08331e-005 -0.0303153 6.34033 -89.6494 14.1934 1.72795e-005 1.44796e-006 2.5225 -8.79794e-006 -1.07668e-005 -20.0127 1.32942e-006 1.2231e-005 1.0709e-005 2.13389e-006 -2.85915e-006 102.189 -18.2229 -82.0712 -14.0157 -3.48879 -4.34049 -7.26158 -0.0655707 -23.2403 0.894515 3.55947 1.78152 -77.7749 -21.1373 97.0335 23.0629 7.16172 -11.4099 0.602381 -5.06423 -9.77616 0.774963 -2.42212 1.42191 2.58319 -0.108799 -0.107835 -8.06241 -0.0352978 0.053986 
-9.79393 95.3726 3.3152 -88.7532 69.3313 -92.8 -177.958 4.55198 93.7209 -13.5427 2.67743 0.175349 66.0336 -1.236 -0.728622 28.7808 6.86584e-006 3.02911e-006 157.355 8.83649 85.6607 -12.8758 5.4819 -8.1166 69.0227 -9.92001 26.1006 28.7808 1.96868e-005 3.08331e-005 -0.0303824 6.34028 -89.6484 14.1934 1.72795e-005 1.44796e-006 2.5225 -8.79794e-006 -1.07668e-005 -20.0127 1.32942e-006 1.2231e-005 1.0709e-005 2.13389e-006 -2.85915e-006 102.157 -18.2164 -82.1122 -13.9882 -3.55182 -4.39178 -7.20513 0.00527543 -23.3282 0.700266 3.83944 2.03878 -77.7795 -21.1438 97.0752 23.0247 7.16916 -11.3653 0.632617 -5.0316 -9.81861 0.722042 -2.41677 1.45336 2.66784 -0.065358 -0.112853 -8.05675 -0.0267125 0.0845445 
-9.75807 95.3825 3.3262 -88.8667 69.2496 -92.6982 -177.948 4.5113 93.7422 -13.4691 2.75911 0.178001 65.9711 -1.28766 -0.759028 28.7808 6.86584e-006 3.02911e-006 157.298 8.77501 85.6376 -12.8483 5.35961 -8.06003 68.9361 -9.82796 25.9445 28.7808 1.96868e-005 3.08331e-005 -0.0297057 6.34058 -89.6539 14.1934 1.72795e-005 1.44796e-006 2.5225 -8.79794e-006 -1.07668e-005 -20.0127 1.32942e-006 1.2231e-005 1.0709e-005 2.13389e-006 -2.85915e-006 102.146 -18.2003 -82.0596 -13.9691 -3.6268 -4.50252 -7.40553 -0.43453 -23.38 0.889435 4.23268 1.9103 -77.8264 -21.1606 97.022 22.939 7.12264 -11.3586 0.625753 -4.89154 -9.82214 0.777159 -2.45056 1.47504 2.75672 -0.0959583 -0.113576 -8.10602 -0.00930665 0.168934 
-9.72048 95.39 3.34449 -88.87 69.2033 -92.6839 -177.928 4.5014 93.7748 -13.3771 2.8263 0.18012 65.8822 -1.30567 -0.773955 28.7808 6.86584e-006 3.02911e-006 157.295 8.76822 85.6625 -12.823 5.47322 -8.04587 68.9338 -9.90221 26.0262 28.7808 1.96868e-005 3.08331e-005 -0.0301188 6.34037 -89.6502 14.1934 1.72795e-005 1.44796e-006 2.5225 -8.79794e-006 -1.07668e-005 -20.0127 1.32942e-006 1.2231e-005 1.0709e-005 2.13389e-006 -2.85915e-006 102.161 -18.2274 -82.0641 -14.0955 -3.87091 -4.8066 -7.28791 -0.318726 -22.8568 0.862572 4.48643 1.71153 -77.8084 -21.1328 97.0262 22.8921 7.18697 -11.3978 0.612096 -4.96113 -9.83166 0.648066 -2.36053 1.38881 3.01398 -0.0818371 -0.0141118 -8.40444 -0.022876 0.0998965 
-9.684 95.3997 3.36754 -88.9005 69.1557 -92.6664 -177.915 4.43958 93.7809 -13.1941 2.85102 0.180764 65.7539 -1.34192 -0.800513 28.7808 6.86584e-006 3.02911e-006 157.289 8.74899 85.6572 -12.8032 5.36764 -8.01537 68.8781 -9.84898 25.8862 28.7808 1.96868e-005 3.08331e-005 -0.030493 6.34013 -89.6459 14.1934 1.72795e-005 1.44796e-006 2.5225 -8.79794e-006 -1.07668e-005 -20.0127 1.32942e-006 1.2231e-005 1.0709e-005 2.13389e-006 -2.85915e-006 102.156 -18.2336 -82.0728 -14.0347 -3.91683 -4.59969 -7.29096 -0.301821 -23.424 0.842964 4.57257 2.10947 -77.8072 -21.1267 97.0351 22.7745 7.04646 -11.4708 0.623567 -4.86542 -9.80879 0.602873 -2.27403 1.37412 3.12794 -0.034464 0.0273714 -8.50783 0.00257233 0.171734 
-9.64515 95.4045 3.39267 -88.9484 69.0944 -92.6251 -177.897 4.38018 93.7967 -13.0297 2.95796 0.184907 65.6408 -1.32344 -0.796888 28.7808 6.86584e-006 3.02911e-006 157.299 8.75933 85.6557 -12.8641 5.29798 -7.97991 68.8746 -9.85733 25.7426 28.7808 1.96868e-005 3.08331e-005 -0.0307042 6.34 -89.6434 14.1934 1.72924e-005 1.35903e-006 2.5225 -8.79891e-006 -1.07639e-005 -20.0127 1.40212e-006 1.21849e-005 1.07077e-005 2.13197e-006 -2.92733e-006 102.134 -18.2312 -82.0771 -14.1311 -4.01998 -4.92566 -7.2011 -0.244067 -22.9255 0.772889 4.81878 1.88268 -77.8247 -21.129 97.0393 22.7696 7.08426 -11.5472 0.652763 -4.87462 -9.87357 0.550926 -2.30301 1.42363 3.35769 -0.0167923 0.105684 -8.73728 0.00585502 0.129823 
-9.60458 95.4078 3.42911 -89.0335 69.0102 -92.5749 -177.896 4.34983 93.785 -12.9253 3.03627 0.18999 65.5343 -1.33539 -0.80968 28.7808 6.86584e-006 3.02911e-006 157.303 8.76716 85.6521 -12.8871 5.42708 -8.00227 68.9023 -9.88872 25.7771 28.7808 1.96868e-005 3.08331e-005 -0.0313724 6.3401 -89.6396 14.1933 -0.000152821 0.00014837 2.52234 -0.000177607 0.000165693 -20.0128 -0.000201988 0.000104154 -0.00017036 -0.000216942 8.72499e-005 102.121 -18.1944 -82.058 -14.1007 -3.97909 -4.98229 -7.27991 -0.335521 -23.0257 0.78259 4.90298 1.93597 -77.852 -21.1658 97.02 22.7821 7.07376 -11.6397 0.671564 -4.8282 -9.86498 0.59497 -2.32634 1.39596 3.49334 -0.0372028 0.128638 -8.85611 0.00938531 0.13596 
-9.56313 95.4112 3.46689 -89.0922 68.9369 -92.5464 -177.89 4.29472 93.7739 -12.7544 3.11499 0.193608 65.4166 -1.3256 -0.811314 28.7808 6.86584e-006 3.02911e-006 157.308 8.78396 85.6374 -12.9266 5.43042 -7.9869 68.9056 -9.86601 25.6947 28.7808 1.96868e-005 3.08331e-005 -0.0437326 6.3499 -89.627 14.1735 -0.0204333 0.0188241 2.50255 -0.0196061 0.0196938 -20.0326 -0.0251504 0.0117963 -0.0199577 -0.0251727 0.0117919 102.166 -18.2382 -82.1251 -14.1053 -4.06054 -5.06967 -7.3722 -0.424605 -23.0004 0.833833 5.0641 1.93625 -77.7612 -21.122 97.0883 22.8177 7.07893 -11.6767 0.666751 -4.79888 -9.90281 0.60245 -2.36201 1.38038 3.70192 0.0218668 0.0695978 -8.96235 0.00358024 0.137568 
-9.51986 95.4159 3.50914 -89.0936 68.8711 -92.5608 -177.88 4.26708 93.7745 -12.5895 3.16943 0.19497 65.2827 -1.33989 -0.827071 28.7808 6.86584e-006 3.02911e-006 157.327 8.81595 85.6379 -12.9695 5.3738 -7.96113 68.9034 -9.87699 25.5591 28.7808 1.96868e-005 3.08331e-005 -0.0484751 6.35152 -89.6187 14.1702 -0.0268502 0.0259946 2.49926 -0.0257034 0.0273729 -20.0359 -0.0334444 0.0168397 -0.023244 -0.0334615 0.0168243 102.17 -18.2437 -82.1324 -14.071 -3.98004 -5.13439 -7.39234 -0.435973 -23.0769 0.857513 4.96664 2.02921 -77.7527 -21.1165 97.0958 22.8855 7.07205 -11.7132 0.638615 -4.76477 -9.89515 0.600908 -2.37362 1.47232 3.88048 -0.0263195 0.00148513 -9.07196 -0.0414314 0.164682 
-9.48053 95.4199 3.55097 -89.1007 68.8213 -92.5555 -177.869 4.26483 93.7873 -12.4833 3.1716 0.196137 65.1543 -1.35468 -0.841828 28.7808 6.86584e-006 3.02911e-006 157.339 8.83371 85.648 -12.9845 5.34743 -7.93504 68.8779 -9.86158 25.4755 28.7808 1.96868e-005 3.08331e-005 -0.0475863 6.35233 -89.6146 14.1685 -0.0232031 0.0259994 2.49756 -0.0219627 0.0301145 -20.0376 -0.0333549 0.0175766 -0.0249439 -0.0333719 0.0175729 102.167 -18.2406 -82.1251 -14.1067 -3.9358 -5.17686 -7.29655 -0.417527 -22.9769 0.910017 4.90432 1.92736 -77.7603 -21.1189 97.0883 23.0004 7.14857 -11.7652 0.59716 -4.81789 -9.88503 0.588365 -2.45184 1.37792 4.06192 -0.12347 0.00288394 -9.12457 -0.124697 0.067953 
-9.44649 95.4244 3.58027 -89.0562 68.8055 -92.6047 -177.858 4.21686 93.7874 -12.2999 3.25166 0.197793 65.0741 -1.33164 -0.834683 28.7808 6.86584e-006 3.02911e-006 157.346 8.86605 85.6557 -12.9942 5.30177 -7.9059 68.8575 -9.86153 25.4041 28.7808 1.96868e-005 3.08331e-005 -0.0458352 6.35284 -89.6092 14.1672 -0.0183481 0.0272535 2.4962 -0.017002 0.0308751 -20.0389 -0.033119 0.0201458 -0.026298 -0.0331359 0.0201464 102.169 -18.2423 -82.129 -14.1136 -3.83359 -5.1465 -7.08506 -0.117172 -23.1568 0.900201 4.49785 2.10497 -77.756 -21.1176 97.0922 23.0707 7.15118 -11.7801 0.617716 -4.86226 -9.88895 0.624021 -2.565 1.33421 4.04028 -0.12045 -0.133873 -9.10837 -0.103551 0.127792 
-9.41136 95.4207 3.63189 -89.1078 68.7905 -92.5485 -177.857 4.30603 93.8042 -12.4283 3.30534 0.19955 65.1113 -1.3185 -0.825139 28.7808 6.86584e-006 3.02911e-006 157.362 8.90255 85.6714 -13.0614 5.29989 -7.88744 68.8736 -9.88891 25.3532 28.7808 1.96868e-005 3.08331e-005 -0.0450082 6.35385 -89.6104 14.1656 -0.0167882 0.029812 2.49463 -0.0154852 0.0303556 -20.0405 -0.0327546 0.0234361 -0.0278622 -0.0327712 0.0234335 102.153 -18.2422 -82.1289 -14.0105 -3.87681 -5.15236 -7.43319 -0.396068 -23.0587 1.05245 5.00659 2.02334 -77.7562 -21.1176 97.0921 23.1125 7.15587 -11.7615 0.662073 -4.85764 -9.90019 0.637843 -2.64363 1.32217 4.13766 -0.180469 -0.132435 -9.107 -0.153538 0.041328 
